<svg xmlns="http://www.w3.org/2000/svg" width="1024" height="1024" viewBox="0 0 1024 1024"><defs><style>.bg{fill:#ffffff}@media (prefers-color-scheme: dark){.bg{fill:url(#tX)}}</style><clipPath id="cX"><rect width="1024" height="1024" rx="215"/></clipPath><linearGradient id="gX" gradientUnits="userSpaceOnUse" x1="354.7" y1="266.1" x2="669.3" y2="629.9"><stop offset="0" stop-color="#ff8b1f"/><stop offset="1" stop-color="#ff2d3e"/></linearGradient><linearGradient id="tX" x1="0" y1="0" x2="1" y2="1"><stop offset="0" stop-color="#000000"/><stop offset="1" stop-color="#1a1a1a"/></linearGradient><filter id="sX" x="-30%" y="-30%" width="160%" height="160%"><feDropShadow dx="0" dy="11.5" stdDeviation="15.8" flood-color="#000000" flood-opacity="0.195"/></filter><mask id="rimX"><rect x="-1024" y="-1024" width="3072" height="3072" fill="#000000"/><path d="M298 646 L298 301.2 Q298 280 313 265 L313 265 Q328 250 349.2 250 L588 250 Q616 250 635.8 269.8 L706.2 340.2 Q726 360 726 388 L726 470" fill="none" stroke="#FFFFFF" stroke-width="72" stroke-linecap="round" stroke-linejoin="round"/><path d="M410 476 L610 476" fill="none" stroke="#FFFFFF" stroke-width="40" stroke-linecap="round" stroke-linejoin="round"/><path d="M406 360 L522 360" fill="none" stroke="#FFFFFF" stroke-width="44" stroke-linecap="round" stroke-linejoin="round"/><path d="M298 646 L298 301.2 Q298 280 313 265 L313 265 Q328 250 349.2 250 L588 250 Q616 250 635.8 269.8 L706.2 340.2 Q726 360 726 388 L726 470" fill="none" stroke="#000000" stroke-width="51.84" stroke-linecap="round" stroke-linejoin="round"/><path d="M410 476 L610 476" fill="none" stroke="#000000" stroke-width="19.84" stroke-linecap="round" stroke-linejoin="round"/><path d="M406 360 L522 360" fill="none" stroke="#000000" stroke-width="23.84" stroke-linecap="round" stroke-linejoin="round"/></mask><mask id="bodyX"><rect x="-1024" y="-1024" width="3072" height="3072" fill="#000000"/><path d="M298 646 L298 301.2 Q298 280 313 265 L313 265 Q328 250 349.2 250 L588 250 Q616 250 635.8 269.8 L706.2 340.2 Q726 360 726 388 L726 470" fill="none" stroke="#FFFFFF" stroke-width="72" stroke-linecap="round" stroke-linejoin="round"/><path d="M410 476 L610 476" fill="none" stroke="#FFFFFF" stroke-width="40" stroke-linecap="round" stroke-linejoin="round"/><path d="M406 360 L522 360" fill="none" stroke="#FFFFFF" stroke-width="44" stroke-linecap="round" stroke-linejoin="round"/></mask><linearGradient id="rimgX" gradientUnits="userSpaceOnUse" x1="262" y1="214" x2="762" y2="682"><stop offset="0" stop-color="#FFFFFF" stop-opacity="0.703"/><stop offset="0.32" stop-color="#FFFFFF" stop-opacity="0.104"/><stop offset="0.62" stop-color="#000000" stop-opacity="0.074"/><stop offset="1" stop-color="#000000" stop-opacity="0.340"/></linearGradient><linearGradient id="sheenX" gradientUnits="userSpaceOnUse" x1="262" y1="214" x2="762" y2="682"><stop offset="0" stop-color="#FFFFFF" stop-opacity="0.000"/><stop offset="0.5" stop-color="#FFFFFF" stop-opacity="0"/><stop offset="1" stop-color="#000000" stop-opacity="0.000"/></linearGradient><linearGradient id="bX" x1="0" y1="0" x2="1" y2="1"><stop offset="0" stop-color="#ff8b21"/><stop offset="1" stop-color="#ff473b"/></linearGradient></defs><g clip-path="url(#cX)"><rect class="bg" width="1024" height="1024"/><g fill="none" stroke="url(#bX)" stroke-width="34" stroke-linecap="round"><path d="M149 299 V207 A58 58 0 0 1 207 149 H299"/><path d="M725 149 H817 A58 58 0 0 1 875 207 V299"/><path d="M875 725 V817 A58 58 0 0 1 817 875 H725"/><path d="M299 875 H207 A58 58 0 0 1 149 817 V725"/></g><g transform="translate(97.82 132.53) scale(.78)"><g transform="translate(532 570) rotate(0) scale(1.3 1.3) translate(-512 -512)" filter="url(#sX)"><path d="M298 646 L298 301.2 Q298 280 313 265 L313 265 Q328 250 349.2 250 L588 250 Q616 250 635.8 269.8 L706.2 340.2 Q726 360 726 388 L726 470" fill="none" stroke="url(#gX)" stroke-width="72" stroke-linecap="round" stroke-linejoin="round"/><path d="M410 476 L610 476" fill="none" stroke="#ff4935" stroke-width="40" stroke-linecap="round" stroke-linejoin="round"/><path d="M406 360 L522 360" fill="none" stroke="url(#gX)" stroke-width="44" stroke-linecap="round" stroke-linejoin="round"/><g mask="url(#bodyX)"><rect x="-1024" y="-1024" width="3072" height="3072" fill="url(#sheenX)"/></g><g mask="url(#rimX)"><rect x="-1024" y="-1024" width="3072" height="3072" fill="url(#rimgX)"/></g></g></g></g></svg>
